HIERARCHY
ROOT Hips
{
	OFFSET 0.000000 0.000000 0.000000
	CHANNELS 6 Xposition Yposition Zposition Zrotation Xrotation Yrotation
	JOINT Spine
	{
		OFFSET 2.089184 22.611587 -0.081835
		CHANNELS 3 Zrotation Xrotation Yrotation
		JOINT Chest
		{
			OFFSET -1.058850 16.486247 -0.547396
			CHANNELS 3 Zrotation Xrotation Yrotation
			JOINT Neck
			{
				OFFSET -4.260954 3.227833 -6.834983
				CHANNELS 3 Zrotation Xrotation Yrotation
				JOINT Head
				{
					OFFSET 6.867407 20.963418 10.715176
					CHANNELS 3 Zrotation Xrotation Yrotation
					End Site
					{
						OFFSET 0.000000 -5.000000 0.000000
					}
				}
			}
			JOINT LeftShoulder
			{
				OFFSET 9.379009 6.758729 -8.214925
				CHANNELS 3 Zrotation Xrotation Yrotation
				JOINT LeftElbow
				{
					OFFSET 22.240808 -11.037397 -16.189927
					CHANNELS 3 Zrotation Xrotation Yrotation
					JOINT LeftWrist
					{
						OFFSET 19.730357 -3.386146 -11.384557
						CHANNELS 3 Zrotation Xrotation Yrotation
						End Site
						{
							OFFSET 0.000000 -5.000000 0.000000
						}
					}
				}
			}
			JOINT RightShoulder
			{
				OFFSET -10.633952 5.140754 3.169326
				CHANNELS 3 Zrotation Xrotation Yrotation
				JOINT RightElbow
				{
					OFFSET -27.985491 -6.245123 12.954552
					CHANNELS 3 Zrotation Xrotation Yrotation
					JOINT RightWrist
					{
						OFFSET -19.638723 1.655465 10.735642
						CHANNELS 3 Zrotation Xrotation Yrotation
						End Site
						{
							OFFSET 0.000000 -5.000000 0.000000
						}
					}
				}
			}
		}
	}
	JOINT LeftHip
	{
		OFFSET 12.020389 -2.055707 1.125010
		CHANNELS 3 Zrotation Xrotation Yrotation
		JOINT LeftKnee
		{
			OFFSET 2.191024 -47.345785 -6.770378
			CHANNELS 3 Zrotation Xrotation Yrotation
			JOINT LeftAnkle
			{
				OFFSET -6.350837 -36.296195 -8.811414
				CHANNELS 3 Zrotation Xrotation Yrotation
				JOINT LeftToe
				{
					OFFSET 3.708326 -5.865227 16.671398
					CHANNELS 3 Zrotation Xrotation Yrotation
					End Site
					{
						OFFSET 0.000000 -5.000000 0.000000
					}
				}
			}
		}
	}
	JOINT RightHip
	{
		OFFSET -5.556069 -3.071916 10.209932
		CHANNELS 3 Zrotation Xrotation Yrotation
		JOINT RightKnee
		{
			OFFSET -7.866699 -48.754304 -4.875458
			CHANNELS 3 Zrotation Xrotation Yrotation
			JOINT RightAnkle
			{
				OFFSET 4.050869 -39.197659 -3.157772
				CHANNELS 3 Zrotation Xrotation Yrotation
				JOINT RightToe
				{
					OFFSET 13.231054 -0.471575 12.318885
					CHANNELS 3 Zrotation Xrotation Yrotation
					End Site
					{
						OFFSET 0.000000 -5.000000 0.000000
					}
				}
			}
		}
	}
}
MOTION
Frames: 12
Frame Time: 0.010000
-16.096692 94.633958 -3.344872 0.406543 -1.154304 1.472711 -0.390272 1.182571 0.067062 -0.635407 -0.146006 -1.546096 -0.000000 0.000000 0.000000 -0.000000 0.000000 0.000000 0.846616 0.888181 0.527482 -0.000000 0.000000 0.000000 -0.000000 0.000000 0.000000 -0.000000 0.000000 0.000000 -0.000000 0.000000 0.000000 -0.000000 0.000000 0.000000 -2.710180 5.469805 0.766025 5.000000 0.000000 2.051867 -1.359313 2.537259 -2.397949 -0.000000 0.000000 0.000000 -1.757183 2.733403 -0.222389 -1.026400 0.000000 0.071372 1.325043 -1.301283 -1.160511 -0.000000 0.000000 0.000000
-16.105067 94.635582 -3.351043 0.401442 -1.151348 1.465504 -0.407165 1.270394 0.072634 -0.534818 -0.312260 -1.546666 -0.000000 0.000000 0.000000 -0.000000 0.000000 0.000000 0.838171 0.894890 0.552774 -0.000000 0.000000 0.000000 -0.000000 0.000000 0.000000 -0.000000 0.000000 0.000000 -0.000000 0.000000 0.000000 -0.000000 0.000000 0.000000 -2.698730 5.455429 0.762862 5.000000 0.000000 2.046226 -1.366404 2.540835 -2.417309 -0.000000 0.000000 0.000000 -1.744799 2.723126 -0.222426 -1.029905 0.000000 0.072122 1.319320 -1.295436 -1.153548 -0.000000 0.000000 0.000000
-16.114808 94.637160 -3.354769 0.412528 -1.151972 1.457635 -0.438801 1.277647 0.072430 -0.525641 -0.328153 -1.547643 -0.000000 0.000000 0.000000 -0.000000 0.000000 0.000000 0.843645 0.900039 0.554895 -0.000000 0.000000 0.000000 -0.000000 0.000000 0.000000 -0.000000 0.000000 0.000000 -0.000000 0.000000 0.000000 -0.000000 0.000000 0.000000 -2.702367 5.446243 0.762922 5.000000 0.000000 2.041614 -1.367517 2.536259 -2.423577 -0.000000 0.000000 0.000000 -1.745503 2.720537 -0.221963 -1.039683 0.000000 0.072989 1.310735 -1.286655 -1.142926 -0.000000 0.000000 0.000000
-16.126870 94.638228 -3.358523 0.411438 -1.156453 1.458660 -0.432596 1.287991 0.073270 -0.537601 -0.302794 -1.540344 -0.000000 0.000000 0.000000 -0.000000 0.000000 0.000000 0.829639 0.877974 0.532127 -0.000000 0.000000 0.000000 -0.000000 0.000000 0.000000 -0.000000 0.000000 0.000000 -0.000000 0.000000 0.000000 -0.000000 0.000000 0.000000 -2.686317 5.442234 0.759599 5.000000 0.000000 2.041768 -1.358553 2.540044 -2.393881 -0.000000 0.000000 0.000000 -1.733190 2.720729 -0.223511 -1.046837 0.000000 0.073866 1.316380 -1.292276 -1.147293 -0.000000 0.000000 0.000000
-16.137217 94.641197 -3.363860 0.421476 -1.157572 1.464751 -0.453441 1.295942 0.073356 -0.538375 -0.305450 -1.545444 -0.000000 0.000000 0.000000 -0.000000 0.000000 0.000000 0.831111 0.872412 0.519148 -0.000000 0.000000 0.000000 -0.000000 0.000000 0.000000 -0.000000 0.000000 0.000000 -0.000000 0.000000 0.000000 -0.000000 0.000000 0.000000 -2.681620 5.424882 0.757519 5.000000 0.000000 2.037853 -1.345035 2.519652 -2.365529 -0.000000 0.000000 0.000000 -1.729866 2.716981 -0.223377 -1.057240 0.000000 0.075559 1.311648 -1.288630 -1.161967 -0.000000 0.000000 0.000000
-16.149688 94.646109 -3.366866 0.423375 -1.165251 1.471196 -0.463747 1.312847 0.074286 -0.531225 -0.313617 -1.540743 -0.000000 0.000000 0.000000 -0.000000 0.000000 0.000000 0.835904 0.862596 0.493065 -0.000000 0.000000 0.000000 -0.000000 0.000000 0.000000 -0.000000 0.000000 0.000000 -0.000000 0.000000 0.000000 -0.000000 0.000000 0.000000 -2.665745 5.417165 0.753980 5.000000 0.000000 2.032091 -1.354756 2.533438 -2.386467 -0.000000 0.000000 0.000000 -1.720012 2.722571 -0.225407 -1.069971 0.000000 0.077053 1.308567 -1.286150 -1.169731 -0.000000 0.000000 0.000000
-16.162355 94.650101 -3.371966 0.429089 -1.170258 1.478218 -0.470713 1.324537 0.074934 -0.540258 -0.306971 -1.551443 -0.000000 0.000000 0.000000 -0.000000 0.000000 0.000000 0.839580 0.862893 0.488330 -0.000000 0.000000 0.000000 -0.000000 0.000000 0.000000 -0.000000 0.000000 0.000000 -0.000000 0.000000 0.000000 -0.000000 0.000000 0.000000 -2.653689 5.405754 0.750915 5.000000 0.000000 2.032220 -1.330812 2.518930 -2.322670 -0.000000 0.000000 0.000000 -1.713951 2.715129 -0.225072 -1.075792 0.000000 0.079761 1.315156 -1.293007 -1.179857 -0.000000 0.000000 0.000000
-16.178342 94.654080 -3.379361 0.429607 -1.166612 1.487280 -0.476456 1.330091 0.075190 -0.542140 -0.318317 -1.570176 -0.000000 0.000000 0.000000 -0.000000 0.000000 0.000000 0.845229 0.862266 0.478942 -0.000000 0.000000 0.000000 -0.000000 0.000000 0.000000 -0.000000 0.000000 0.000000 -0.000000 0.000000 0.000000 -0.000000 0.000000 0.000000 -2.630302 5.382152 0.744876 5.000000 0.000000 2.027782 -1.327971 2.508092 -2.320849 -0.000000 0.000000 0.000000 -1.695581 2.706699 -0.226111 -1.096090 0.000000 0.081537 1.309194 -1.287787 -1.187631 -0.000000 0.000000 0.000000
-16.193880 94.658199 -3.385777 0.429538 -1.156318 1.480273 -0.474657 1.309065 0.073790 -0.549025 -0.302702 -1.564663 -0.000000 0.000000 0.000000 -0.000000 0.000000 0.000000 0.849586 0.858821 0.465922 -0.000000 0.000000 0.000000 -0.000000 0.000000 0.000000 -0.000000 0.000000 0.000000 -0.000000 0.000000 0.000000 -0.000000 0.000000 0.000000 -2.611661 5.358797 0.739761 5.000000 0.000000 2.019866 -1.355239 2.535122 -2.386880 -0.000000 0.000000 0.000000 -1.674503 2.687986 -0.225981 -1.124271 0.000000 0.084831 1.311943 -1.290326 -1.186318 -0.000000 0.000000 0.000000
-16.208610 94.662555 -3.392077 0.432764 -1.157746 1.467433 -0.477843 1.319763 0.074453 -0.543218 -0.315118 -1.568336 -0.000000 0.000000 0.000000 -0.000000 0.000000 0.000000 0.840062 0.846685 0.456001 -0.000000 0.000000 0.000000 -0.000000 0.000000 0.000000 -0.000000 0.000000 0.000000 -0.000000 0.000000 0.000000 -0.000000 0.000000 0.000000 -2.604918 5.345515 0.737584 5.000000 0.000000 2.013866 -1.349768 2.533619 -2.371155 -0.000000 0.000000 0.000000 -1.661236 2.664555 -0.224194 -1.140250 0.000000 0.090810 1.321942 -1.299558 -1.181488 -0.000000 0.000000 0.000000
-16.229176 94.662787 -3.397880 0.432209 -1.148127 1.467319 -0.446347 1.205061 0.067314 -0.659868 -0.115752 -1.559184 -0.000000 0.000000 0.000000 -0.000000 0.000000 0.000000 0.851888 0.824252 0.395118 -0.000000 0.000000 0.000000 -0.000000 0.000000 0.000000 -0.000000 0.000000 0.000000 -0.000000 0.000000 0.000000 -0.000000 0.000000 0.000000 -2.582620 5.318475 0.731540 5.000000 0.000000 2.009221 -1.344257 2.517074 -2.364782 -0.000000 0.000000 0.000000 -1.636302 2.652106 -0.225440 -1.166417 0.000000 0.092941 1.322267 -1.300115 -1.185743 -0.000000 0.000000 0.000000
-16.246775 94.663063 -3.405492 0.438507 -1.139883 1.460260 -0.455962 1.190916 0.066130 -0.667909 -0.109948 -1.568888 -0.000000 0.000000 0.000000 -0.000000 0.000000 0.000000 0.864590 0.831144 0.390235 -0.000000 0.000000 0.000000 -0.000000 0.000000 0.000000 -0.000000 0.000000 0.000000 -0.000000 0.000000 0.000000 -0.000000 0.000000 0.000000 -2.574273 5.300185 0.728728 5.000000 0.000000 2.006518 -1.334411 2.508926 -2.339929 -0.000000 0.000000 0.000000 -1.619727 2.632778 -0.224648 -1.194172 0.004580 0.096831 1.328541 -1.305872 -1.182135 -0.000000 0.000000 0.000000
